<?xml version="1.0" encoding="UTF-8"?>
<svg id="Layer_1" data-name="Layer 1" xmlns="http://www.w3.org/2000/svg" viewBox="0 0 1254.48 228.42">
  <defs>
    <style>
      .cls-1 {
        fill: #c42031;
      }
    </style>
  </defs>
  <g>
    <path d="M0,49.26c0-6.16,4.93-11.1,10.48-11.1h62.61c34.24,0,62,28.07,62,62s-27.77,61.38-62,61.38H21.27v56.14c0,5.55-4.93,10.49-10.79,10.49s-10.48-4.94-10.48-10.49V49.26ZM21.28,59.75v80.8h51.82c22.51,0,40.4-18.5,40.4-40.4s-17.89-40.4-40.4-40.4H21.28Z"/>
    <path d="M282.43,38.16c5.55,0,10.48,4.93,10.48,11.1,0,5.55-4.93,10.49-10.48,10.49h-99.63v62.93h87.29c5.87,0,10.49,4.94,10.49,10.49,0,5.87-4.62,10.49-10.49,10.49h-87.29v62.9h99.63c5.55,0,10.48,5.25,10.48,11.11,0,5.55-4.93,10.49-10.48,10.49h-110.12c-5.87,0-10.79-4.94-10.79-10.49V49.26c0-6.47,4.93-11.1,10.79-11.1h110.12Z"/>
    <path d="M384.1,59.75v157.92c0,5.55-4.93,10.49-10.8,10.49-5.55,0-10.49-4.94-10.49-10.49V59.75h-49.36c-5.55,0-10.49-4.94-10.49-10.49,0-6.16,4.94-11.1,10.49-11.1h119.99c5.55,0,10.18,4.93,10.18,11.1,0,5.55-4.63,10.49-10.18,10.49h-49.34Z"/>
    <path d="M464.49,49.26c0-6.16,4.93-11.1,10.48-11.1h62.61c34.24,0,62,28.07,62,62s-27.77,61.38-62,61.38h-51.82v56.14c0,5.55-4.93,10.49-10.79,10.49s-10.48-4.94-10.48-10.49V49.26ZM485.77,59.75v80.8h51.82c22.51,0,40.4-18.5,40.4-40.4s-17.89-40.4-40.4-40.4h-51.82Z"/>
    <path d="M1063.41,38.16c6.17,0,11.1,4.94,11.1,11.1v108.89c0,38.55-31.14,69.71-69.71,70.01-5.85,0-10.79-4.63-10.79-10.49s4.62-11.11,10.79-11.11c26.53,0,48.43-21.59,48.43-48.42V49.26c0-6.16,4.62-11.1,10.17-11.1Z"/>
    <path d="M1161.61,44.64c1.54-4.31,6.17-6.47,10.48-6.47s8.34,2.17,10.49,6.47l70.95,168.72c2.47,5.54,0,11.4-5.55,13.88-1.24.62-2.47.92-4.02.92-4.01,0-7.72-2.46-9.56-6.47l-15.72-37.02h-93.46l-15.42,37.02c-1.53,4.02-5.85,6.47-9.87,6.47-1.24,0-2.78-.3-4.02-.92-5.55-2.46-8.02-8.33-5.55-13.88l71.25-168.72ZM1172.09,73.95l-37.93,89.75h75.27l-37.34-89.75Z"/>
  </g>
  <g>
    <path class="cls-1" d="M750.63,228.42c-62.98,0-114.21-51.23-114.21-114.21S687.65,0,750.63,0s114.21,51.23,114.21,114.21c0,5.8-4.7,10.5-10.5,10.5s-10.5-4.7-10.5-10.5c0-51.4-41.82-93.22-93.22-93.22s-93.22,41.82-93.22,93.22,41.82,93.22,93.22,93.22c5.8,0,10.5,4.7,10.5,10.5s-4.7,10.5-10.5,10.5Z"/>
    <path class="cls-1" d="M876.32,228.42c-53.01,0-96.14-43.13-96.14-96.14,0-5.8,4.7-10.5,10.5-10.5s10.5,4.7,10.5,10.5c0,41.43,33.71,75.14,75.14,75.14s75.14-33.71,75.14-75.14-33.71-75.14-75.14-75.14c-5.8,0-10.5-4.7-10.5-10.5s4.7-10.5,10.5-10.5c53.01,0,96.14,43.13,96.14,96.14s-43.13,96.14-96.14,96.14Z"/>
  </g>
</svg>